<mxfile host="Electron" modified="2024-01-11T20:14:41.725Z" agent="Mozilla/5.0 (Macintosh; Intel Mac OS X 10_15_7) AppleWebKit/537.36 (KHTML, like Gecko) draw.io/22.1.18 Chrome/120.0.6099.199 Electron/28.1.2 Safari/537.36" etag="2weaOu4SFKM6Q768i_oJ" version="22.1.18" type="device">
  <diagram id="1cee9afd-dcdd-cf27-cb82-50d77dad4855" name="Page-1">
    <mxGraphModel dx="880" dy="770" grid="0" gridSize="10" guides="1" tooltips="1" connect="1" arrows="1" fold="1" page="1" pageScale="1" pageWidth="1200" pageHeight="1600" background="#787878" math="0" shadow="1">
      <root>
        <mxCell id="0" />
        <mxCell id="1" parent="0" />
        <mxCell id="c1cb8d76720eaeb-1" value="Add a Doctor" style="ellipse;whiteSpace=wrap;html=1;fillColor=#FF8000;strokeColor=#000066;fontColor=#000099;" parent="1" vertex="1">
          <mxGeometry x="260" y="60" width="120" height="80" as="geometry" />
        </mxCell>
        <mxCell id="c1cb8d76720eaeb-2" value="Add a Patient" style="ellipse;whiteSpace=wrap;html=1;fillColor=#FF8000;strokeColor=#000066;fontColor=#000099;" parent="1" vertex="1">
          <mxGeometry x="330" y="150" width="120" height="80" as="geometry" />
        </mxCell>
        <mxCell id="c1cb8d76720eaeb-3" value="Search/view information" style="ellipse;whiteSpace=wrap;html=1;fillColor=#FF8000;strokeColor=#000066;fontColor=#000099;" parent="1" vertex="1">
          <mxGeometry x="410" y="240" width="120" height="80" as="geometry" />
        </mxCell>
        <mxCell id="c1cb8d76720eaeb-4" value="Edit information" style="ellipse;whiteSpace=wrap;html=1;fillColor=#FF8000;strokeColor=#000066;fontColor=#000099;" parent="1" vertex="1">
          <mxGeometry x="425" y="50" width="120" height="80" as="geometry" />
        </mxCell>
        <mxCell id="c1cb8d76720eaeb-6" value="Treatments" style="ellipse;whiteSpace=wrap;html=1;fillColor=#FF8000;strokeColor=#000066;fontColor=#000099;" parent="1" vertex="1">
          <mxGeometry x="270" y="425" width="120" height="80" as="geometry" />
        </mxCell>
        <mxCell id="c1cb8d76720eaeb-10" style="html=1;exitX=1;exitY=0.3333333333333333;exitPerimeter=0;entryX=0;entryY=0.5;jettySize=auto;orthogonalLoop=1;fillColor=#f8cecc;strokeColor=#FF8000;curved=1;fontColor=#000099;" parent="1" source="c1cb8d76720eaeb-15" target="c1cb8d76720eaeb-1" edge="1">
          <mxGeometry relative="1" as="geometry" />
        </mxCell>
        <mxCell id="c1cb8d76720eaeb-11" style="html=1;exitX=1;exitY=0.3333333333333333;exitPerimeter=0;entryX=0;entryY=0.5;jettySize=auto;orthogonalLoop=1;curved=1;fontColor=#000099;strokeColor=#FF8000;" parent="1" source="c1cb8d76720eaeb-15" target="c1cb8d76720eaeb-2" edge="1">
          <mxGeometry relative="1" as="geometry" />
        </mxCell>
        <mxCell id="c1cb8d76720eaeb-12" style="rounded=0;html=1;exitX=1;exitY=0.3333333333333333;exitPerimeter=0;entryX=0;entryY=0.5;jettySize=auto;orthogonalLoop=1;fontColor=#000099;strokeColor=#FF8000;" parent="1" source="c1cb8d76720eaeb-15" target="c1cb8d76720eaeb-26" edge="1">
          <mxGeometry relative="1" as="geometry" />
        </mxCell>
        <mxCell id="c1cb8d76720eaeb-13" style="edgeStyle=none;curved=1;html=1;exitX=1;exitY=0.3333333333333333;exitPerimeter=0;entryX=0;entryY=0.5;jettySize=auto;orthogonalLoop=1;strokeColor=#FF8000;fontColor=#000099;" parent="1" source="c1cb8d76720eaeb-15" target="c1cb8d76720eaeb-3" edge="1">
          <mxGeometry relative="1" as="geometry" />
        </mxCell>
        <mxCell id="c1cb8d76720eaeb-14" style="edgeStyle=none;curved=1;html=1;exitX=1;exitY=0.3333333333333333;exitPerimeter=0;jettySize=auto;orthogonalLoop=1;strokeColor=#FF8000;entryX=0;entryY=0.5;fontColor=#000099;" parent="1" source="c1cb8d76720eaeb-15" target="c1cb8d76720eaeb-6" edge="1">
          <mxGeometry relative="1" as="geometry" />
        </mxCell>
        <mxCell id="c1cb8d76720eaeb-15" value="&lt;font color=&quot;#0f0f0f&quot;&gt;Receptionist&lt;/font&gt;" style="shape=umlActor;verticalLabelPosition=bottom;labelBackgroundColor=#ffffff;verticalAlign=top;html=1;strokeWidth=4;fillColor=#60a917;strokeColor=#2D7600;fontColor=#ffffff;" parent="1" vertex="1">
          <mxGeometry x="130" y="195" width="30" height="60" as="geometry" />
        </mxCell>
        <mxCell id="c1cb8d76720eaeb-16" style="rounded=0;html=1;exitX=0;exitY=0.3333333333333333;exitPerimeter=0;jettySize=auto;orthogonalLoop=1;fontColor=#000099;strokeColor=#FF8000;" parent="1" source="c1cb8d76720eaeb-20" target="c1cb8d76720eaeb-3" edge="1">
          <mxGeometry relative="1" as="geometry">
            <mxPoint x="680" y="250" as="targetPoint" />
          </mxGeometry>
        </mxCell>
        <mxCell id="c1cb8d76720eaeb-17" style="edgeStyle=none;curved=1;html=1;entryX=0.942;entryY=0.813;jettySize=auto;orthogonalLoop=1;strokeColor=#FF8000;fontColor=#000099;exitX=0;exitY=0.3333333333333333;exitDx=0;exitDy=0;exitPerimeter=0;entryDx=0;entryDy=0;entryPerimeter=0;" parent="1" source="c1cb8d76720eaeb-20" target="c1cb8d76720eaeb-26" edge="1">
          <mxGeometry relative="1" as="geometry">
            <mxPoint x="580" y="380" as="sourcePoint" />
            <Array as="points">
              <mxPoint x="540" y="410" />
            </Array>
          </mxGeometry>
        </mxCell>
        <mxCell id="c1cb8d76720eaeb-20" value="&lt;font color=&quot;#000000&quot;&gt;Patient&lt;/font&gt;" style="shape=umlActor;verticalLabelPosition=bottom;labelBackgroundColor=#ffffff;verticalAlign=top;html=1;strokeWidth=4;fillColor=#008a00;strokeColor=#005700;fontColor=#ffffff;" parent="1" vertex="1">
          <mxGeometry x="620" y="420" width="30" height="60" as="geometry" />
        </mxCell>
        <mxCell id="c1cb8d76720eaeb-26" value="Appointments" style="ellipse;whiteSpace=wrap;html=1;fillColor=#FF8000;strokeColor=#000066;fontColor=#000099;" parent="1" vertex="1">
          <mxGeometry x="340" y="330" width="120" height="80" as="geometry" />
        </mxCell>
        <mxCell id="aFz3n7FmyWs_mHHRLx98-4" style="edgeStyle=none;curved=1;html=1;exitX=0.617;exitY=0;exitPerimeter=0;entryX=0.5;entryY=1;jettySize=auto;orthogonalLoop=1;strokeColor=#FF8000;fontColor=#000099;exitDx=0;exitDy=0;entryDx=0;entryDy=0;" edge="1" parent="1" source="c1cb8d76720eaeb-3" target="c1cb8d76720eaeb-4">
          <mxGeometry relative="1" as="geometry">
            <mxPoint x="460" y="160" as="sourcePoint" />
            <mxPoint x="710" y="225" as="targetPoint" />
          </mxGeometry>
        </mxCell>
      </root>
    </mxGraphModel>
  </diagram>
</mxfile>
